<?xml version="1.0" encoding="UTF-8" standalone="no"?><!DOCTYPE svg PUBLIC "-//W3C//DTD SVG 1.1//EN" "http://www.w3.org/Graphics/SVG/1.1/DTD/svg11.dtd"><svg width="100%" height="100%" viewBox="0 0 5906 5906" version="1.1" xmlns="http://www.w3.org/2000/svg" xmlns:xlink="http://www.w3.org/1999/xlink" xml:space="preserve" xmlns:serif="http://www.serif.com/" style="fill-rule:evenodd;clip-rule:evenodd;stroke-linejoin:round;stroke-miterlimit:2;"><rect id="eins" x="-0" y="0.157" width="5905.51" height="5905.51" style="fill:#fff;"/><g><path d="M4818.16,3841.28l-70.988,0l0,192.338l-17.495,-0l-0,-192.338l-70.846,0l-0,-14.796l159.329,0l-0,14.796Zm-24.25,476l-0,14.796l-96.6,-0l-0,96.879l-17.496,0l0,-207.133l128.321,-0l-0,14.796l-110.825,-0l-0,80.662l96.6,0Zm21.479,507.021l-18.637,-0l-50.075,-86.354l-60.18,-0l0,86.354l-17.637,-0l-0,-207.133l67.287,-0c22.1,-0 39.363,5.354 51.784,16.058c12.425,10.708 18.637,25.675 18.637,44.904c0,13.258 -3.891,24.958 -11.666,35.096c-7.775,10.133 -18.209,17.146 -31.296,21.025l51.783,88.196l0,1.854Zm-156.696,-2579.17l17.496,0l0,93.038l118.363,-0l-0,-93.038l17.637,0l0,207.129l-17.637,0l-0,-99.296l-118.363,0l0,99.296l-17.496,0l0,-207.129Zm146.242,-203l-0,14.796l-119.925,-0l-0,-207.133l17.637,-0l0,192.337l102.288,0Zm-148.313,-497.483c0,-28.738 7.263,-51.429 21.771,-68.071c14.509,-16.646 34,-24.967 58.467,-24.967c21.337,0 38.504,5.425 51.5,16.288c12.992,10.858 20.721,25.821 23.187,44.883l-17.495,0c-2.563,-15.221 -8.75,-26.758 -18.567,-34.608c-9.817,-7.842 -22.646,-11.771 -38.483,-11.771c-19.346,-0 -34.663,6.883 -45.95,20.642c-11.288,13.766 -16.925,33.175 -16.925,58.233l-0,24.487c-0,15.755 2.675,29.688 8.033,41.788c5.358,12.1 13.042,21.475 23.05,28.117c10.004,6.645 21.504,9.966 34.496,9.966c15.079,0 28.025,-2.366 38.837,-7.112c7.021,-3.129 12.238,-6.779 15.65,-10.954l0,-53.492l-55.625,-0l0,-14.796l73.121,0l0,73.692c-6.071,8.633 -15.575,15.362 -28.521,20.2c-12.946,4.841 -27.433,7.258 -43.462,7.258c-16.217,0 -30.638,-3.887 -43.246,-11.667c-12.613,-7.775 -22.383,-18.779 -29.304,-33.004c-6.925,-14.225 -10.438,-30.537 -10.534,-48.937l0,-26.175Zm-319.358,874.308c10.858,14.238 25.538,21.354 44.029,21.354c18.304,0 32.104,-4.383 41.4,-13.162c9.292,-8.767 15.029,-21.925 17.217,-39.471l17.637,-0c-2.37,21.812 -10.17,38.504 -23.4,50.071c-13.233,11.575 -30.85,17.354 -52.854,17.354c-15.362,-0 -28.95,-3.838 -40.754,-11.517c-11.808,-7.683 -20.937,-18.566 -27.387,-32.65c-6.45,-14.083 -9.721,-30.183 -9.817,-48.3l-0,-26.887c-0,-18.396 3.225,-34.709 9.675,-48.938c6.45,-14.225 15.721,-25.2 27.808,-32.933c12.096,-7.729 26.017,-11.596 41.759,-11.596c22.191,0 39.712,5.979 52.562,17.929c12.85,11.946 20.321,28.5 22.408,49.646l-17.637,0c-4.367,-35.183 -23.475,-52.779 -57.333,-52.779c-18.78,-0 -33.742,7.029 -44.888,21.075c-11.142,14.05 -16.712,33.458 -16.712,58.229l-0,25.342c-0,23.916 5.429,42.996 16.287,57.233m119.004,428.65l-17.504,0l-119.071,-177.258l0,177.258l-17.637,0l-0,-207.133l17.637,-0l119.213,177.4l-0,-177.4l17.362,-0l0,207.133Zm-5.479,583.538l0,14.795l-110.679,0l-0,78.242l96.879,0l0,14.8l-96.879,0l-0,84.504l111.392,0l-0,14.792l-128.892,-0l-0,-207.133l128.179,-0Zm-13.8,-302.3l0,14.795l-96.879,0l-0,84.505l111.392,-0l-0,14.791l-128.892,0l-0,-207.125l128.179,0l0,14.792l-110.679,-0l-0,78.242l96.879,-0Zm18.925,904.775l-17.642,-0l0,-99.296l-118.362,-0l-0,99.296l-17.496,-0l0,-207.134l17.496,0l-0,93.038l118.362,-0l0,-93.038l17.642,0l0,207.134Zm-7.258,380.541l-0,14.796l-119.925,0l-0,-207.133l17.641,-0l0,192.337l102.284,0Zm7.258,410.142l-17.642,-0l0,-99.296l-118.362,0l-0,99.296l-17.496,-0l0,-207.133l17.496,-0l-0,93.037l118.362,0l0,-93.037l17.642,-0l0,207.133Zm-362.904,-1581.37l-16.783,0l-46.95,-162.033l-5.263,-20.483l-5.121,20.483l-48.083,162.033l-16.788,0l-52.92,-207.125l17.925,0l37.841,151.217l6.4,32.15l7.825,-30.725l44.954,-152.642l15.792,0l44.388,152.642l7.679,31.012l6.829,-32.437l37.412,-151.217l17.925,0l-53.062,207.125Zm-89.338,940.909c0,3.129 -1.062,5.783 -3.2,7.962c-2.133,2.183 -5.004,3.275 -8.608,3.275c-3.604,0 -6.446,-1.092 -8.533,-3.275c-2.088,-2.179 -3.129,-4.833 -3.129,-7.962c-0,-3.23 1.041,-5.955 3.129,-8.184c2.087,-2.225 4.929,-3.341 8.533,-3.341c3.604,-0 6.475,1.116 8.608,3.341c2.138,2.229 3.2,4.954 3.2,8.184m62.313,0.137c-0,3.133 -1.067,5.788 -3.2,7.967c-2.138,2.187 -5.004,3.271 -8.608,3.271c-3.609,-0 -6.45,-1.084 -8.534,-3.271c-2.087,-2.179 -3.133,-4.834 -3.133,-7.967c-0,-3.221 1.046,-5.95 3.133,-8.179c2.084,-2.225 4.925,-3.342 8.534,-3.342c3.604,0 6.47,1.117 8.608,3.342c2.133,2.229 3.2,4.958 3.2,8.179m-51.717,-752.837l17.496,-0l0,207.133l-17.496,-0l0,-207.133Zm12.025,392.5c22.192,-0 39.713,5.975 52.563,17.92c12.85,11.955 20.321,28.505 22.408,49.65l-17.637,0c-4.367,-35.183 -23.475,-52.779 -57.334,-52.779c-18.779,0 -33.741,7.025 -44.883,21.075c-11.146,14.046 -16.717,33.459 -16.717,58.229l0,25.342c0,23.917 5.429,42.996 16.288,57.233c10.862,14.238 25.537,21.355 44.033,21.355c18.3,-0 32.104,-4.388 41.396,-13.159c9.296,-8.771 15.033,-21.929 17.217,-39.479l17.637,0c-2.371,21.817 -10.171,38.504 -23.4,50.079c-13.233,11.571 -30.85,17.354 -52.85,17.354c-15.367,0 -28.954,-3.841 -40.758,-11.525c-11.809,-7.683 -20.938,-18.562 -27.388,-32.645c-6.45,-14.088 -9.721,-30.184 -9.812,-48.3l-0,-26.888c-0,-18.396 3.221,-34.712 9.671,-48.937c6.45,-14.225 15.72,-25.205 27.812,-32.93c12.092,-7.733 26.013,-11.595 41.754,-11.595m77.388,512.987c-0,19.063 -3.296,35.804 -9.888,50.217c-6.591,14.416 -16,25.512 -28.237,33.287c-12.234,7.779 -26.367,11.667 -42.392,11.667c-24.187,-0 -43.725,-8.654 -58.612,-25.963c-14.888,-17.308 -22.338,-40.662 -22.338,-70.062l0,-21.338c0,-18.875 3.346,-35.587 10.033,-50.15c6.684,-14.558 16.146,-25.75 28.38,-33.575c12.237,-7.82 26.32,-11.737 42.254,-11.737c15.929,-0 29.991,3.842 42.179,11.525c12.187,7.683 21.596,18.542 28.237,32.575c6.638,14.042 10.1,30.304 10.384,48.796l-0,24.758Zm-7.538,421.946c-0.1,13.942 -3.179,26.083 -9.25,36.421c-6.071,10.337 -14.629,18.275 -25.675,23.825c-11.05,5.546 -23.733,8.321 -38.058,8.321c-21.813,-0 -39.288,-5.946 -52.421,-17.85c-13.137,-11.9 -19.942,-28.38 -20.412,-49.438l-0,-142.687l17.354,-0l-0,140.129c-0,17.45 4.979,30.987 14.937,40.616c9.959,9.621 23.475,14.438 40.542,14.438c17.075,-0 30.562,-4.838 40.475,-14.513c9.908,-9.67 14.867,-23.137 14.867,-40.4l-0,-140.27l17.641,-0l0,141.408Zm-359.412,-329.621l-16.784,0l-46.95,-162.037l-5.262,-20.484l-5.121,20.484l-48.083,162.037l-16.784,0l-52.925,-207.133l17.925,-0l37.842,151.225l6.4,32.15l7.825,-30.725l44.954,-152.65l15.792,-0l44.387,152.65l7.68,31.008l6.829,-32.433l37.416,-151.225l17.921,-0l-53.062,207.133Zm-4.692,395.346l-84.358,-102.858l-29.167,28.741l0,74.117l-17.496,-0l0,-207.133l17.496,-0l0,111.679l106.129,-111.679l22.05,-0l-86.779,92.187l93.463,114.946l-21.338,-0Zm-321.85,-1581.37l-17.5,0l0,-90.191l1.425,-92.467l-77.104,182.658l-13.521,0l-76.817,-181.95l1.421,91.188l0,90.762l-17.496,0l0,-207.125l23.188,0l76.392,182.804l76.679,-182.804l23.333,0l0,207.125Zm-44.6,333.742c0,19.633 -5.671,35.283 -17,46.95c-11.337,11.662 -26.533,17.496 -45.596,17.496c-20.108,-0 -35.566,-5.263 -46.379,-15.792c-10.808,-10.525 -16.217,-25.225 -16.217,-44.1l17.5,0c0,14.988 3.934,26.25 11.805,33.788c7.875,7.541 18.97,11.308 33.291,11.308c13.179,-0 23.925,-4.363 32.221,-13.083c8.3,-8.725 12.546,-20.584 12.733,-35.571l0,-146.529l17.642,-0l0,145.533Zm14.229,442.146l0,14.796l-119.925,-0l0,-207.134l17.638,0l-0,192.338l102.287,-0Zm-139.987,217.796l-0,-14.796l140.837,-0l0,12.404l-123.341,179.933l127.895,0l0,14.796l-149.091,0l-0,-13.229l122.916,-179.108l-119.216,-0Zm147.596,587.683l-17.5,-0l-119.071,-177.258l-0,177.258l-17.642,-0l0,-207.133l17.642,-0l119.212,177.4l0,-177.4l17.359,-0l-0,207.133Zm-86.005,816.108l-58.333,0l0,-58.333l58.333,-0l0,58.333Zm-212.5,0l-58.333,0l0,-58.333l58.333,-0l0,58.333Zm-61.62,-881.833c-0.096,13.942 -3.18,26.083 -9.25,36.421c-6.071,10.337 -14.625,18.275 -25.675,23.825c-11.055,5.546 -23.734,8.321 -38.055,8.321c-21.816,-0 -39.287,-5.946 -52.42,-17.85c-13.142,-11.9 -19.946,-28.38 -20.421,-49.438l-0,-142.687l17.358,-0l0,140.129c0,17.45 4.983,30.987 14.933,40.616c9.963,9.621 23.48,14.438 40.55,14.438c17.071,-0 30.559,-4.838 40.471,-14.513c9.913,-9.67 14.867,-23.137 14.867,-40.4l-0,-140.27l17.642,-0l-0,141.408Zm-150.371,-536.754l17.641,-0l119.213,177.4l-0,-177.4l17.358,-0l0,207.133l-17.504,0l-119.067,-177.258l0,177.258l-17.641,0l-0,-207.133Zm-0.509,1418.59l-58.333,0l0,-58.333l58.333,-0l0,58.333Zm-210.02,-2792.8l-21.484,-58.187l-94.033,-0l-21.338,58.187l-18.354,0l78.388,-207.133l16.641,-0l78.388,207.133l-18.208,0Zm-8.113,395.329l-60.317,-90.475l-60.604,90.475l-20.766,0l70.845,-104.987l-68.712,-102.138l20.908,0l58.329,87.629l58.325,-87.629l20.913,0l-68.567,102.138l70.704,104.987l-21.058,0Zm-1.633,295.121c-12,10.575 -29.379,15.863 -52.138,15.863l-52.637,-0l-0,84.358l-17.5,-0l-0,-207.133l70.562,-0c21.529,-0 38.529,5.504 51,16.504c12.471,11.004 18.709,26.129 18.709,45.383c-0,19.442 -6,34.45 -17.996,45.025m-3.559,483.613c-13.041,9.866 -30.229,14.795 -51.566,14.795c-14.604,0 -28.004,-2.608 -40.192,-7.825c-12.183,-5.212 -21.433,-12.516 -27.737,-21.908c-6.309,-9.387 -9.463,-20.15 -9.463,-32.292l17.5,0c0,14.605 5.45,26.13 16.358,34.571c10.905,8.438 25.417,12.659 43.534,12.659c16.121,-0 29.066,-3.559 38.837,-10.671c9.767,-7.113 14.65,-16.546 14.65,-28.309c0,-11.47 -4.033,-20.554 -12.091,-27.245c-8.063,-6.684 -22.809,-13.034 -44.242,-19.063c-21.433,-6.017 -37.083,-12.587 -46.946,-19.7c-14.037,-10.05 -21.054,-23.233 -21.054,-39.55c-0,-15.833 6.517,-28.708 19.558,-38.621c13.042,-9.912 29.709,-14.866 50.009,-14.866c13.75,-0 26.054,2.654 36.916,7.966c10.854,5.313 19.275,12.709 25.25,22.192c5.975,9.483 8.963,20.058 8.963,31.725l-17.642,-0c0,-14.175 -4.837,-25.567 -14.508,-34.175c-9.675,-8.608 -22.671,-12.917 -38.979,-12.917c-15.842,0 -28.455,3.542 -37.842,10.617c-9.392,7.079 -14.088,16.312 -14.088,27.717c0,10.541 4.221,19.137 12.663,25.787c8.442,6.654 21.954,12.517 40.546,17.6c18.587,5.079 32.671,10.35 42.25,15.804c9.579,5.45 16.787,11.971 21.625,19.559c4.837,7.587 7.254,16.55 7.254,26.887c-0,16.313 -6.521,29.4 -19.563,39.263m17,407.287l-128.887,0l-0,-207.133l128.175,-0l-0,14.796l-110.675,-0l-0,78.241l96.879,0l0,14.8l-96.879,0l-0,84.5l111.387,0l0,14.796Zm0,395.346l-128.887,-0l-0,-207.133l128.175,-0l-0,14.795l-110.675,0l-0,78.242l96.879,0l0,14.8l-96.879,0l-0,84.5l111.387,0l0,14.796Zm-6.175,816.108l-58.333,0l0,-58.333l58.333,-0l0,58.333Zm-345.337,-3978.83l-17.5,0l-119.071,-177.258l0,177.258l-17.642,0l0,-207.133l17.642,-0l119.217,177.4l-0,-177.4l17.354,-0l-0,207.133Zm-14.796,2677.23c7.35,9.192 11.025,19.809 11.025,31.85c0,18.292 -5.904,32.584 -17.712,42.867c-11.809,10.283 -28.238,15.425 -49.292,15.425l-69.283,0l-0,-207.133l61.175,-0c22.191,-0 39.025,4.583 50.5,13.737c11.475,9.159 17.216,22.659 17.216,40.5c0,10.721 -2.916,20.046 -8.75,27.971c-5.833,7.925 -13.825,13.596 -23.971,17.013c12.042,2.65 21.742,8.575 29.092,17.77m-121.558,-512.329l-0,93.038l118.358,-0l0,-93.038l17.642,0l-0,207.134l-17.642,-0l0,-99.296l-118.358,-0l-0,99.296l-17.5,-0l-0,-207.134l17.5,0Zm68.141,-188.208l-17.5,-0l0,-207.133l17.5,-0l0,207.133Zm-10.67,-997.804c22.191,-0 39.025,4.575 50.5,13.737c11.475,9.159 17.216,22.654 17.216,40.496c0,10.725 -2.916,20.05 -8.75,27.971c-5.833,7.929 -13.825,13.596 -23.971,17.008c12.042,2.659 21.742,8.584 29.092,17.775c7.35,9.196 11.025,19.813 11.025,31.85c0,18.292 -5.904,32.584 -17.712,42.867c-11.809,10.283 -28.238,15.429 -49.292,15.429l-69.283,0l-0,-207.133l61.175,-0Zm-6.83,-790.679l17.5,-0l0,207.133l-17.5,-0l0,-207.133Zm81.3,395.337l0,14.796l-110.82,-0l-0,80.658l96.595,0l0,14.796l-96.595,0l-0,96.879l-17.496,0l-0,-207.129l128.316,0Zm-27.525,919.633c-8.062,-6.687 -22.808,-13.037 -44.245,-19.062c-21.434,-6.021 -37.08,-12.592 -46.942,-19.704c-14.038,-10.05 -21.054,-23.234 -21.054,-39.546c-0,-15.838 6.516,-28.713 19.558,-38.625c13.038,-9.908 29.708,-14.867 50.004,-14.867c13.75,0 26.059,2.659 36.917,7.967c10.858,5.312 19.279,12.712 25.25,22.192c5.975,9.487 8.967,20.062 8.967,31.725l-17.642,-0c-0,-14.175 -4.838,-25.563 -14.513,-34.175c-9.67,-8.605 -22.666,-12.913 -38.979,-12.913c-15.837,0 -28.45,3.538 -37.841,10.617c-9.388,7.079 -14.084,16.312 -14.084,27.712c0,10.542 4.221,19.142 12.663,25.788c8.441,6.654 21.954,12.516 40.546,17.6c18.587,5.083 32.666,10.35 42.25,15.804c9.579,5.454 16.787,11.971 21.625,19.558c4.833,7.592 7.254,16.55 7.254,26.888c-0,16.312 -6.525,29.4 -19.563,39.262c-13.041,9.867 -30.229,14.796 -51.566,14.796c-14.609,0 -28.005,-2.608 -40.192,-7.825c-12.188,-5.212 -21.433,-12.517 -27.742,-21.908c-6.304,-9.388 -9.458,-20.15 -9.458,-32.292l17.5,0c-0,14.604 5.45,26.129 16.358,34.571c10.904,8.442 25.417,12.658 43.534,12.658c16.12,0 29.066,-3.554 38.833,-10.666c9.771,-7.113 14.654,-16.55 14.654,-28.309c0,-11.475 -4.033,-20.558 -12.092,-27.246m31.938,1659.54l-17.5,-0l-119.071,-177.258l0,177.258l-17.642,-0l0,-207.133l17.642,-0l119.217,177.4l-0,-177.4l17.354,-0l-0,207.133Zm-367.946,-3558.06l-84.362,-102.85l-29.163,28.733l0,74.117l-17.496,-0l0,-207.13l17.496,0l0,111.675l106.129,-111.675l22.05,0l-86.779,92.184l93.467,114.946l-21.342,-0Zm14.508,1186.02l-18.633,0l-50.075,-86.354l-60.179,0l-0,86.354l-17.642,0l0,-207.129l67.292,0c22.096,0 39.358,5.35 51.783,16.054c12.425,10.709 18.638,25.671 18.638,44.904c-0,13.259 -3.892,24.959 -11.667,35.096c-7.779,10.134 -18.208,17.146 -31.296,21.025l51.779,88.196l0,1.854Zm-121.845,1548.05c10.858,14.238 25.537,21.355 44.029,21.355c18.304,-0 32.104,-4.388 41.4,-13.159c9.291,-8.771 15.029,-21.929 17.212,-39.479l17.642,0c-2.371,21.817 -10.171,38.504 -23.404,50.079c-13.229,11.571 -30.846,17.354 -52.85,17.354c-15.363,0 -28.95,-3.841 -40.759,-11.525c-11.808,-7.683 -20.933,-18.562 -27.383,-32.645c-6.45,-14.088 -9.721,-30.184 -9.817,-48.3l0,-26.888c0,-18.396 3.225,-34.712 9.675,-48.937c6.446,-14.225 15.717,-25.205 27.813,-32.93c12.092,-7.733 26.008,-11.595 41.754,-11.595c22.192,-0 39.713,5.975 52.567,17.92c12.85,11.955 20.316,28.505 22.404,49.65l-17.642,0c-4.362,-35.183 -23.471,-52.779 -57.329,-52.779c-18.779,0 -33.742,7.025 -44.883,21.075c-11.146,14.046 -16.717,33.459 -16.717,58.229l0,25.342c0,23.917 5.429,42.996 16.288,57.233m99.725,314.546l-0,14.8l-96.88,0l0,84.5l111.392,0l0,14.796l-128.887,0l-0,-207.133l128.175,-0l-0,14.796l-110.68,-0l0,78.241l96.88,0Zm18.92,509.442l-17.637,-0l-0,-99.296l-118.363,0l0,99.296l-17.495,-0l-0,-207.133l17.495,-0l0,93.037l118.363,0l-0,-93.037l17.637,-0l0,207.133Zm-18.92,-1300.12l-0,14.8l-96.88,0l0,84.504l111.392,0l0,14.792l-128.887,-0l-0,-207.133l128.175,-0l-0,14.795l-110.68,0l0,78.242l96.88,0Zm11.666,-691.371l0,14.796l-119.925,0l0,-207.133l17.642,-0l-0,192.337l102.283,0Zm-146.6,203l17.642,0l119.212,177.396l0,-177.396l17.359,0l-0,207.125l-17.5,0l-119.071,-177.254l-0,177.254l-17.642,0l0,-207.125Zm-210.533,-188.204l-21.479,-58.187l-94.038,-0l-21.337,58.187l-18.35,0l78.383,-207.133l16.646,-0l78.383,207.133l-18.208,0Zm-77.246,188.204l17.5,0l0,207.129l-17.5,0l0,-207.129Zm88.558,602.467l-18.637,-0l-50.075,-86.35l-60.175,-0l-0,86.35l-17.642,-0l0,-207.133l67.288,-0c22.096,-0 39.358,5.358 51.783,16.062c12.425,10.704 18.638,25.671 18.638,44.9c-0,13.263 -3.892,24.958 -11.667,35.096c-7.779,10.137 -18.208,17.146 -31.296,21.029l51.783,88.196l0,1.85Zm-7.612,395.342l-128.888,-0l0,-207.134l128.175,0l0,14.796l-110.675,0l0,78.242l96.88,-0l-0,14.8l-96.88,-0l0,84.5l111.388,-0l-0,14.796Zm-80.946,188.204l17.5,-0l0,207.133l-17.5,0l0,-207.133Zm80.946,602.479l-128.888,-0l0,-207.133l128.175,-0l0,14.795l-110.675,0l0,78.242l96.88,0l-0,14.8l-96.88,0l0,84.5l111.388,0l-0,14.796Zm-420.017,-2372.04l-16.787,0l-77.1,-207.129l19.058,0l65.158,181.521l1.138,4.412l1.279,-4.412l65.154,-181.521l19.209,0l-77.109,207.129Zm68.713,1091.98c-0,18.491 -3.746,34.904 -11.238,49.22c-7.491,14.325 -18.046,25.371 -31.65,33.146c-13.612,7.784 -29.237,11.667 -46.875,11.667l-56.621,-0l0,-207.133l57.9,-0c16.975,-0 32.196,3.866 45.667,11.6c13.463,7.729 23.971,18.8 31.508,33.212c7.542,14.421 11.309,30.829 11.309,49.225l-0,19.063Zm-21.979,477.425c-13.042,9.866 -30.23,14.795 -51.567,14.795c-14.608,0 -28.004,-2.608 -40.192,-7.825c-12.187,-5.212 -21.433,-12.516 -27.741,-21.908c-6.305,-9.387 -9.459,-20.15 -9.459,-32.292l17.5,0c0,14.605 5.45,26.13 16.359,34.571c10.904,8.438 25.416,12.659 43.533,12.659c16.121,-0 29.067,-3.559 38.833,-10.671c9.771,-7.113 14.654,-16.546 14.654,-28.309c0,-11.47 -4.033,-20.554 -12.091,-27.245c-8.063,-6.684 -22.809,-13.034 -44.242,-19.063c-21.437,-6.017 -37.083,-12.587 -46.946,-19.7c-14.037,-10.05 -21.054,-23.233 -21.054,-39.55c0,-15.833 6.517,-28.708 19.558,-38.621c13.038,-9.912 29.709,-14.866 50.005,-14.866c13.75,-0 26.058,2.654 36.916,7.966c10.859,5.313 19.279,12.709 25.25,22.192c5.975,9.483 8.967,20.058 8.967,31.725l-17.642,-0c0,-14.175 -4.837,-25.567 -14.512,-34.175c-9.671,-8.608 -22.667,-12.917 -38.979,-12.917c-15.838,0 -28.45,3.542 -37.842,10.617c-9.388,7.079 -14.083,16.312 -14.083,27.717c-0,10.541 4.22,19.137 12.662,25.787c8.442,6.654 21.954,12.517 40.546,17.6c18.587,5.079 32.667,10.35 42.25,15.804c9.579,5.45 16.787,11.971 21.625,19.559c4.833,7.587 7.254,16.55 7.254,26.887c0,16.313 -6.525,29.4 -19.562,39.263m-0,395.337c-13.042,9.867 -30.23,14.796 -51.567,14.796c-14.608,-0 -28.004,-2.608 -40.192,-7.825c-12.187,-5.213 -21.433,-12.517 -27.741,-21.908c-6.305,-9.388 -9.459,-20.15 -9.459,-32.292l17.5,-0c0,14.604 5.45,26.125 16.359,34.571c10.904,8.437 25.416,12.658 43.533,12.658c16.121,0 29.067,-3.558 38.833,-10.671c9.771,-7.112 14.654,-16.546 14.654,-28.308c0,-11.475 -4.033,-20.554 -12.091,-27.246c-8.063,-6.683 -22.809,-13.037 -44.242,-19.062c-21.437,-6.017 -37.083,-12.588 -46.946,-19.7c-14.037,-10.055 -21.054,-23.238 -21.054,-39.55c0,-15.834 6.517,-28.709 19.558,-38.621c13.038,-9.913 29.709,-14.871 50.005,-14.871c13.75,-0 26.058,2.658 36.916,7.971c10.859,5.312 19.279,12.708 25.25,22.191c5.975,9.484 8.967,20.059 8.967,31.725l-17.642,0c0,-14.175 -4.837,-25.566 -14.512,-34.175c-9.671,-8.612 -22.667,-12.916 -38.979,-12.916c-15.838,-0 -28.45,3.541 -37.842,10.616c-9.388,7.08 -14.083,16.313 -14.083,27.713c-0,10.546 4.22,19.142 12.662,25.792c8.442,6.654 21.954,12.516 40.546,17.6c18.587,5.079 32.667,10.35 42.25,15.804c9.579,5.45 16.787,11.971 21.625,19.558c4.833,7.588 7.254,16.55 7.254,26.888c0,16.312 -6.525,29.4 -19.562,39.262m19.562,407.296l-149.087,-0l-0,-13.229l122.912,-179.109l-119.217,0l0,-14.795l140.842,-0l0,12.4l-123.342,179.937l127.892,0l0,14.796Zm-17.071,-1695.46l0,14.795l-96.879,0l0,84.505l111.388,-0l-0,14.791l-128.888,0l0,-207.125l128.175,0l0,14.792l-110.675,-0l0,78.242l96.879,-0Zm1.279,-395.334l0,-93.037l17.642,-0l0,207.133l-17.642,0l0,-99.3l-118.358,0l0,99.3l-17.5,0l0,-207.133l17.5,-0l0,93.037l118.358,0Zm18.209,-789.683l-0,19.067c-0,18.491 -3.746,34.9 -11.238,49.22c-7.491,14.321 -18.046,25.371 -31.65,33.146c-13.612,7.775 -29.237,11.667 -46.875,11.667l-56.621,-0l0,-207.133l57.9,-0c16.975,-0 32.196,3.866 45.667,11.595c13.463,7.73 23.971,18.805 31.508,33.217c7.542,14.417 11.309,30.821 11.309,49.221m-151.504,-295.475l122.912,-179.104l-119.217,-0l0,-14.796l140.842,-0l0,12.4l-123.342,179.937l127.892,0l0,14.796l-149.087,0l-0,-13.233Zm17.637,-589.238l128.175,0l0,14.796l-110.675,0l0,78.242l96.879,-0l0,14.796l-96.879,-0l0,84.5l111.388,-0l-0,14.796l-128.888,-0l0,-207.13Zm332.167,1278.62c-0,-18.87 3.346,-35.587 10.029,-50.145c6.687,-14.559 16.146,-25.746 28.383,-33.571c12.234,-7.825 26.317,-11.742 42.25,-11.742c15.934,0 29.992,3.842 42.184,11.525c12.183,7.683 21.595,18.542 28.237,32.579c6.638,14.034 10.1,30.3 10.383,48.796l0,24.754c0,19.063 -3.295,35.8 -9.887,50.217c-6.592,14.417 -16.004,25.512 -28.238,33.292c-12.233,7.775 -26.366,11.658 -42.391,11.658c-24.188,-0 -43.725,-8.65 -58.613,-25.958c-14.891,-17.305 -22.337,-40.663 -22.337,-70.067l-0,-21.338Zm125.833,-1149.67c-8.062,-6.688 -22.812,-13.038 -44.246,-19.063c-21.433,-6.021 -37.083,-12.587 -46.941,-19.7c-14.038,-10.054 -21.059,-23.237 -21.059,-39.55c0,-15.837 6.521,-28.712 19.563,-38.625c13.037,-9.908 29.708,-14.866 50.004,-14.866c13.75,-0 26.058,2.654 36.917,7.966c10.858,5.313 19.279,12.713 25.25,22.192c5.975,9.483 8.966,20.058 8.966,31.725l-17.641,-0c-0,-14.171 -4.838,-25.567 -14.513,-34.175c-9.671,-8.604 -22.667,-12.917 -38.979,-12.917c-15.838,0 -28.45,3.542 -37.842,10.617c-9.387,7.083 -14.083,16.317 -14.083,27.717c-0,10.541 4.221,19.141 12.662,25.787c8.438,6.654 21.955,12.521 40.542,17.6c18.588,5.079 32.671,10.35 42.254,15.804c9.575,5.45 16.784,11.975 21.625,19.559c4.834,7.587 7.254,16.554 7.254,26.887c0,16.313 -6.525,29.404 -19.562,39.263c-13.042,9.866 -30.229,14.795 -51.571,14.795c-14.604,0 -28,-2.608 -40.187,-7.82c-12.188,-5.217 -21.434,-12.521 -27.742,-21.913c-6.304,-9.387 -9.458,-20.15 -9.458,-32.292l17.495,0c0,14.609 5.455,26.134 16.363,34.571c10.904,8.442 25.417,12.659 43.529,12.659c16.125,-0 29.071,-3.555 38.838,-10.667c9.766,-7.117 14.654,-16.55 14.654,-28.308c-0,-11.475 -4.034,-20.559 -12.092,-27.246m-44.458,661.721c22.096,-0 39.358,5.354 51.783,16.054c12.425,10.708 18.638,25.675 18.638,44.904c-0,13.258 -3.892,24.962 -11.667,35.1c-7.779,10.133 -18.208,17.146 -31.296,21.029l51.783,88.196l0,1.85l-18.637,-0l-50.075,-86.354l-60.175,-0l-0,86.354l-17.642,-0l0,-207.133l67.288,-0Zm57.121,-302.305l-0,14.796l-96.88,0l0,84.504l111.388,0l-0,14.796l-128.888,0l0,-207.133l128.175,-0l0,14.796l-110.675,-0l0,78.241l96.88,0Zm356.275,395.342l-0,14.796l-96.88,-0l0,84.504l111.392,0l0,14.796l-128.887,-0l-0,-207.133l128.175,-0l-0,14.795l-110.68,0l0,78.242l96.88,0Zm-134.575,-488.379l17.495,-0l0,93.037l118.363,0l-0,-93.037l17.637,-0l0,207.133l-17.637,0l-0,-99.3l-118.363,0l0,99.3l-17.495,0l-0,-207.133Zm424.42,-395.338l17.5,0l0,207.13l-17.5,-0l0,-207.13Zm324.63,1366.76c9.958,9.625 23.47,14.437 40.541,14.437c17.075,0 30.563,-4.837 40.475,-14.512c9.909,-9.671 14.867,-23.138 14.867,-40.4l-0,-140.267l17.642,0l-0,141.404c-0.096,13.942 -3.184,26.084 -9.25,36.421c-6.071,10.338 -14.63,18.279 -25.68,23.825c-11.05,5.55 -23.733,8.321 -38.054,8.321c-21.812,-0 -39.287,-5.946 -52.421,-17.85c-13.137,-11.9 -19.941,-28.379 -20.412,-49.438l-0,-142.683l17.354,0l0,140.125c0,17.45 4.979,30.988 14.938,40.617m-25.963,-576.079l65.154,181.525l1.138,4.408l1.279,-4.408l65.154,-181.525l19.208,-0l-77.104,207.133l-16.787,-0l-77.104,-207.133l19.062,-0Zm-7.971,-201.442l122.913,-179.104l-119.213,-0l0,-14.796l140.838,-0l-0,12.4l-123.338,179.937l127.892,0l-0,14.796l-149.092,0l0,-13.233Zm119.359,-460.279c-8.063,-6.688 -22.809,-13.038 -44.242,-19.063c-21.433,-6.021 -37.083,-12.587 -46.946,-19.7c-14.037,-10.054 -21.054,-23.237 -21.054,-39.55c-0,-15.837 6.517,-28.712 19.558,-38.625c13.042,-9.908 29.709,-14.866 50.009,-14.866c13.75,-0 26.054,2.654 36.916,7.966c10.854,5.313 19.275,12.713 25.25,22.192c5.975,9.483 8.963,20.058 8.963,31.725l-17.642,-0c0,-14.171 -4.837,-25.567 -14.508,-34.175c-9.675,-8.604 -22.671,-12.917 -38.979,-12.917c-15.842,0 -28.455,3.542 -37.842,10.617c-9.392,7.083 -14.088,16.317 -14.088,27.717c0,10.541 4.221,19.141 12.663,25.787c8.442,6.654 21.954,12.521 40.546,17.6c18.587,5.079 32.671,10.35 42.25,15.804c9.579,5.45 16.787,11.975 21.625,19.559c4.837,7.587 7.254,16.554 7.254,26.887c-0,16.313 -6.521,29.404 -19.563,39.263c-13.041,9.866 -30.229,14.795 -51.566,14.795c-14.604,0 -28.004,-2.608 -40.192,-7.82c-12.183,-5.217 -21.433,-12.521 -27.737,-21.913c-6.309,-9.387 -9.463,-20.15 -9.463,-32.292l17.5,0c0,14.609 5.45,26.134 16.358,34.571c10.905,8.442 25.417,12.659 43.534,12.659c16.121,-0 29.066,-3.555 38.837,-10.667c9.767,-7.117 14.65,-16.55 14.65,-28.308c0,-11.475 -4.033,-20.559 -12.091,-27.246m302.929,1847.74l16.646,0l78.387,207.125l-18.212,0l-21.48,-58.179l-94.037,0l-21.338,58.179l-18.35,0l78.384,-207.125Zm-10.388,-36.283c0,3.129 -1.066,5.787 -3.196,7.971c-2.133,2.183 -5.004,3.271 -8.608,3.271c-3.604,-0 -6.45,-1.088 -8.537,-3.271c-2.088,-2.184 -3.13,-4.842 -3.13,-7.971c0,-3.221 1.042,-5.946 3.13,-8.175c2.087,-2.229 4.933,-3.346 8.537,-3.346c3.604,0 6.475,1.117 8.608,3.346c2.13,2.229 3.196,4.954 3.196,8.175m62.313,0.146c-0,3.129 -1.063,5.783 -3.2,7.966c-2.134,2.184 -5,3.271 -8.609,3.271c-3.604,0 -6.445,-1.087 -8.533,-3.271c-2.083,-2.183 -3.129,-4.837 -3.129,-7.966c-0,-3.225 1.046,-5.95 3.129,-8.179c2.088,-2.225 4.929,-3.346 8.533,-3.346c3.609,-0 6.475,1.121 8.609,3.346c2.137,2.229 3.2,4.954 3.2,8.179m-100.292,-152.067l0,-207.133l128.179,-0l0,14.791l-110.683,0l-0,78.246l96.879,0l0,14.796l-96.879,0l-0,84.504l111.392,0l-0,14.796l-128.888,0Zm47.942,-997.812l17.496,-0l-0,207.133l-17.496,-0l-0,-207.133Zm68.354,572.733l-0,-177.396l17.358,0l0,207.129l-17.504,0l-119.067,-177.254l0,177.254l-17.641,0l-0,-207.129l17.641,0l119.213,177.396Zm17.358,1403.96l0,207.134l-17.504,-0l-119.067,-177.259l0,177.259l-17.641,-0l-0,-207.134l17.641,0l119.213,177.4l-0,-177.4l17.358,0Zm-70.421,-188.208l-13.516,-0l-76.821,-181.95l1.425,91.187l-0,90.763l-17.5,-0l-0,-207.133l23.192,-0l76.391,182.808l76.679,-182.808l23.334,-0l-0,207.133l-17.504,-0l-0,-90.192l1.425,-92.471l-77.105,182.663Zm-110.533,-2183.82l37.842,151.225l6.4,32.15l7.825,-30.729l44.954,-152.646l15.792,-0l44.383,152.646l7.683,31.012l6.825,-32.433l37.417,-151.225l17.925,-0l-53.067,207.133l-16.783,0l-46.946,-162.037l-5.262,-20.484l-5.125,20.484l-48.084,162.037l-16.783,0l-52.925,-207.133l17.929,-0Zm27.242,-395.338l159.329,0l-0,14.796l-70.988,0l0,192.334l-17.495,-0l-0,-192.334l-70.846,0l-0,-14.796Zm490.716,883.717l0,14.796l-96.879,-0l0,84.504l111.392,0l-0,14.796l-128.888,-0l0,-207.133l128.18,-0l-0,14.795l-110.684,0l0,78.242l96.879,0Zm7.613,509.429l-84.358,-102.854l-29.167,28.738l-0,74.116l-17.496,0l0,-207.129l17.496,0l-0,111.675l106.129,-111.675l22.05,0l-86.779,92.183l93.462,114.946l-21.337,0Zm4.058,380.55l0,14.796l-119.925,0l0,-207.133l17.638,-0l-0,192.337l102.287,0Zm-77.679,-1378.36l16.642,-0l78.391,207.133l-18.212,0l-21.479,-58.187l-94.038,-0l-21.337,58.187l-18.35,0l78.383,-207.133Zm0,-395.338l16.642,0l78.391,207.13l-18.212,-0l-21.479,-58.184l-94.038,0l-21.337,58.184l-18.35,-0l78.383,-207.13Zm356.279,2767.37l16.642,0l78.392,207.134l-18.213,-0l-21.483,-58.184l-94.034,0l-21.337,58.184l-18.35,-0l78.383,-207.134Zm-58.041,-395.341l65.154,181.529l1.141,4.408l1.28,-4.408l65.154,-181.529l19.204,-0l-77.104,207.133l-16.788,-0l-77.104,-207.133l19.063,-0Zm124.691,-695.213l0,14.796l-96.596,-0l0,96.879l-17.5,0l0,-207.133l128.321,-0l0,14.791l-110.821,0l0,80.667l96.596,0Zm-128.958,314.671l-0,-14.792l140.837,0l0,12.396l-123.341,179.938l127.896,-0l-0,14.791l-149.092,0l-0,-13.225l122.912,-179.108l-119.212,-0Zm-6.617,-805.471l17.642,0l119.212,177.396l0,-177.396l17.359,0l-0,207.129l-17.5,0l-119.071,-177.254l-0,177.254l-17.642,0l0,-207.129Zm0,-790.679l17.642,-0l119.212,177.4l0,-177.4l17.359,-0l-0,207.133l-17.5,0l-119.071,-177.258l-0,177.258l-17.642,0l0,-207.133Zm21.479,-395.338l128.321,0l0,14.796l-110.821,0l0,80.659l96.596,-0l0,14.795l-96.596,0l0,96.88l-17.5,-0l0,-207.13Zm135.575,995.963l0,1.85l-18.633,-0l-50.079,-86.354l-60.175,-0l-0,86.354l-17.642,-0l0,-207.133l67.292,-0c22.1,-0 39.358,5.354 51.783,16.054c12.421,10.708 18.634,25.675 18.634,44.904c-0,13.258 -3.888,24.962 -11.667,35.1c-7.775,10.133 -18.208,17.146 -31.292,21.029l51.779,88.196Zm297.53,549.262c-0,-3.225 1.041,-5.954 3.129,-8.183c2.083,-2.225 4.929,-3.342 8.537,-3.342c3.6,0 6.467,1.117 8.604,3.342c2.134,2.229 3.205,4.958 3.205,8.183c-0,3.13 -1.071,5.784 -3.205,7.967c-2.137,2.179 -5.004,3.271 -8.604,3.271c-3.608,-0 -6.454,-1.092 -8.537,-3.271c-2.088,-2.183 -3.129,-4.837 -3.129,-7.967m-62.313,-0.141c0,-3.225 1.046,-5.954 3.133,-8.184c2.084,-2.225 4.925,-3.341 8.53,-3.341c3.608,-0 6.475,1.116 8.612,3.341c2.133,2.23 3.196,4.959 3.196,8.184c-0,3.129 -1.063,5.783 -3.196,7.966c-2.137,2.18 -5.004,3.271 -8.612,3.271c-3.605,0 -6.446,-1.091 -8.53,-3.271c-2.087,-2.183 -3.133,-4.837 -3.133,-7.966m0.854,217.016c9.959,9.625 23.475,14.438 40.542,14.438c17.075,-0 30.562,-4.838 40.475,-14.508c9.908,-9.675 14.867,-23.142 14.867,-40.4l-0,-140.271l17.641,-0l0,141.404c-0.1,13.946 -3.179,26.083 -9.25,36.421c-6.071,10.337 -14.629,18.279 -25.675,23.829c-11.05,5.546 -23.733,8.321 -38.058,8.321c-21.813,-0 -39.288,-5.95 -52.421,-17.854c-13.137,-11.9 -19.942,-28.38 -20.412,-49.434l-0,-142.687l17.354,-0l-0,140.129c-0,17.45 4.979,30.987 14.937,40.612m32.079,-576.083l16.642,0l78.392,207.129l-18.217,0l-21.479,-58.183l-94.033,-0l-21.338,58.183l-18.354,0l78.387,-207.129Zm-68.429,-395.337l159.329,-0l0,14.795l-70.987,0l-0,192.338l-17.496,-0l0,-192.338l-70.846,0l0,-14.795Zm2.421,-201.442l122.913,-179.104l-119.213,-0l0,-14.796l140.838,-0l-0,12.4l-123.342,179.937l127.892,0l-0,14.796l-149.088,0l0,-13.233Zm1.638,-589.238l17.354,0l-0,140.125c-0,17.455 4.979,30.992 14.937,40.617c9.959,9.629 23.475,14.438 40.542,14.438c17.075,-0 30.562,-4.834 40.475,-14.509c9.908,-9.675 14.867,-23.137 14.867,-40.404l-0,-140.267l17.641,0l0,141.409c-0.1,13.937 -3.179,26.083 -9.25,36.416c-6.071,10.338 -14.629,18.284 -25.675,23.83c-11.05,5.55 -23.733,8.32 -38.058,8.32c-21.813,0 -39.288,-5.95 -52.421,-17.85c-13.137,-11.904 -19.942,-28.383 -20.412,-49.441l-0,-142.684Zm34.57,-44.458c2.084,-2.225 4.925,-3.342 8.53,-3.342c3.608,0 6.475,1.117 8.612,3.342c2.133,2.233 3.196,4.958 3.196,8.179c-0,3.129 -1.063,5.788 -3.196,7.967c-2.137,2.187 -5.004,3.275 -8.612,3.275c-3.605,-0 -6.446,-1.088 -8.53,-3.275c-2.087,-2.179 -3.133,-4.838 -3.133,-7.967c0,-3.221 1.046,-5.946 3.133,-8.179m62.309,0.146c2.083,-2.229 4.929,-3.346 8.537,-3.346c3.6,0 6.467,1.117 8.604,3.346c2.134,2.229 3.205,4.954 3.205,8.175c-0,3.129 -1.071,5.787 -3.205,7.971c-2.137,2.183 -5.004,3.271 -8.604,3.271c-3.608,-0 -6.454,-1.088 -8.537,-3.271c-2.088,-2.184 -3.129,-4.842 -3.129,-7.971c-0,-3.221 1.041,-5.946 3.129,-8.175m323.346,439.65l17.495,-0l0,207.133l-17.495,0l-0,-207.133Zm80.237,395.342l0,14.795l-110.679,0l-0,78.242l96.879,0l0,14.796l-96.879,-0l-0,84.504l111.392,0l-0,14.796l-128.892,-0l-0,-207.133l128.179,-0Zm-148.733,-790.68l17.637,0l119.213,177.396l-0,-177.396l17.362,0l0,207.13l-17.504,-0l-119.071,-177.255l0,177.255l-17.637,-0l-0,-207.13Zm377.758,0l128.321,0l-0,14.796l-110.825,0l-0,80.659l96.6,-0l-0,14.795l-96.6,0l-0,96.88l-17.496,-0l0,-207.13Zm56.333,2372.03c22.1,-0 39.363,5.358 51.784,16.062c12.425,10.704 18.637,25.671 18.637,44.9c0,13.263 -3.891,24.958 -11.666,35.096c-7.775,10.137 -18.209,17.146 -31.296,21.029l51.783,88.196l0,1.85l-18.637,-0l-50.075,-86.35l-60.18,-0l0,86.35l-17.637,-0l-0,-207.133l67.287,-0Zm8.18,-188.209l-17.496,0l-0,-207.129l17.496,0l-0,207.129Zm49.583,-507.004l-0,14.796l-96.6,-0l-0,96.879l-17.496,0l0,-207.133l128.321,-0l-0,14.791l-110.825,0l-0,80.667l96.6,0Z" style="fill-rule:nonzero;"/><path d="M2606.08,3445.94l-54.2,0l-0,93.184l53.062,-0c16.975,-0 29.921,-4.038 38.838,-12.113c8.912,-8.071 13.37,-19.329 13.37,-33.767c0,-14.341 -4.433,-25.762 -13.304,-34.266c-8.866,-8.5 -21.458,-12.846 -37.766,-13.038" style="fill:#fefcf7;fill-rule:nonzero;stroke:#000;stroke-width:1.04px;"/><path d="M1569.04,1943.24c8.913,-8.359 13.371,-19.184 13.371,-32.488c0,-14.625 -4.646,-25.975 -13.937,-34.05c-9.3,-8.071 -22.338,-12.112 -39.125,-12.112l-49.363,-0l0,91.191l53.634,0c14.695,0 26.504,-4.179 35.42,-12.541" style="fill:#fefcf7;fill-rule:nonzero;stroke:#000;stroke-width:1.04px;"/><path d="M3666.67,3847.83l-41.542,112.813l83.083,-0l-41.541,-112.813Z" style="fill:#fefcf7;fill-rule:nonzero;stroke:#000;stroke-width:1.04px;"/><path d="M1487.45,2774.63l83.079,-0l-41.542,-112.813l-41.537,112.813Z" style="fill:#fefcf7;fill-rule:nonzero;stroke:#000;stroke-width:1.04px;"/><path d="M4022.95,2266.47l-41.542,112.812l83.083,0l-41.541,-112.812Z" style="fill:#fefcf7;fill-rule:nonzero;stroke:#000;stroke-width:1.04px;"/><path d="M4022.88,4234.35c-19.254,-0 -34.595,7.091 -46.025,21.266c-11.425,14.184 -17.137,33.979 -17.137,59.392l-0,21.629c-0,24.563 5.687,44.025 17.067,58.396c11.383,14.371 26.841,21.55 46.379,21.55c19.821,-0 35.279,-7.088 46.375,-21.267c11.096,-14.179 16.646,-33.929 16.646,-59.25l-0,-21.908c-0,-24.942 -5.642,-44.479 -16.93,-58.613c-11.287,-14.129 -26.745,-21.195 -46.375,-21.195" style="fill:#fefcf7;fill-rule:nonzero;stroke:#000;stroke-width:1.04px;"/><path d="M3310.39,1080.46l-41.541,112.812l83.083,0l-41.542,-112.812Z" style="fill:#fefcf7;fill-rule:nonzero;stroke:#000;stroke-width:1.04px;"/><path d="M2556.29,2774.63l83.079,-0l-41.541,-112.813l-41.538,112.813Z" style="fill:#fefcf7;fill-rule:nonzero;stroke:#000;stroke-width:1.04px;"/><path d="M3706.15,1876.7c-9.296,-8.071 -22.333,-12.113 -39.125,-12.113l-49.362,0l-0,91.192l53.633,0c14.7,0 26.504,-4.179 35.425,-12.542c8.908,-8.358 13.371,-19.187 13.371,-32.487c-0,-14.625 -4.65,-25.979 -13.942,-34.05" style="fill:#fefcf7;fill-rule:nonzero;stroke:#000;stroke-width:1.04px;"/><path d="M1582.41,3492.11c0,-14.629 -4.645,-25.979 -13.941,-34.054c-9.296,-8.071 -22.338,-12.112 -39.121,-12.112l-49.367,-0l0,91.191l53.634,0c14.7,0 26.508,-4.179 35.425,-12.541c8.912,-8.359 13.37,-19.188 13.37,-32.484" style="fill:#fefcf7;fill-rule:nonzero;stroke:#000;stroke-width:1.04px;"/><path d="M3310.39,1475.79l-41.541,112.812l83.083,0l-41.542,-112.812Z" style="fill:#fefcf7;fill-rule:nonzero;stroke:#000;stroke-width:1.04px;"/><path d="M1161.75,3445.94l-40.687,0l-0,177.542l39.266,-0c21.813,-0 39.309,-7.238 52.492,-21.713c13.179,-14.47 19.775,-34.05 19.775,-58.725l0,-18.225c0,-23.825 -6.5,-42.904 -19.492,-57.237c-12.991,-14.329 -30.108,-21.546 -51.354,-21.642" style="fill:#fefcf7;fill-rule:nonzero;stroke:#000;stroke-width:1.04px;"/><path d="M2284.16,2821.38c8.771,-7.621 13.158,-18.2 13.158,-31.742c0,-12.783 -4.196,-22.887 -12.591,-30.325c-8.392,-7.429 -19.988,-11.146 -34.78,-11.146l-53.916,0l-0,84.646l52.491,0c14.984,0 26.863,-3.812 35.638,-11.433" style="fill:#fefcf7;fill-rule:nonzero;stroke:#000;stroke-width:1.04px;"/><path d="M2277.75,2723.04c8.013,-6.604 12.021,-16.225 12.021,-28.863c0,-13.3 -4.15,-23.108 -12.45,-29.425c-8.296,-6.321 -20.837,-9.483 -37.625,-9.483l-43.675,-0l0,78.1l47.8,-0c14.604,-0.283 25.913,-3.725 33.929,-10.329" style="fill:#fefcf7;fill-rule:nonzero;stroke:#000;stroke-width:1.04px;"/><path d="M1161.75,1864.59l-40.687,-0l-0,177.541l39.266,0c21.813,0 39.309,-7.237 52.492,-21.712c13.179,-14.475 19.775,-34.05 19.775,-58.729l0,-18.225c0,-23.821 -6.5,-42.9 -19.492,-57.234c-12.991,-14.333 -30.108,-21.546 -51.354,-21.641" style="fill:#fefcf7;fill-rule:nonzero;stroke:#000;stroke-width:1.04px;"/><path d="M4788.93,4678.13c0,-14.629 -4.646,-25.979 -13.941,-34.054c-9.296,-8.071 -22.334,-12.112 -39.121,-12.112l-49.367,-0l0,91.191l53.633,0c14.7,0 26.505,-4.179 35.425,-12.541c8.913,-8.359 13.371,-19.188 13.371,-32.484" style="fill:#fefcf7;fill-rule:nonzero;stroke:#000;stroke-width:1.04px;"/><path d="M1938.69,2306.09c-0,-14.629 -4.646,-25.979 -13.942,-34.054c-9.296,-8.071 -22.337,-12.108 -39.121,-12.108l-49.366,-0l-0,91.187l53.633,0c14.7,0 26.508,-4.179 35.425,-12.537c8.912,-8.359 13.371,-19.192 13.371,-32.488" style="fill:#fefcf7;fill-rule:nonzero;stroke:#000;stroke-width:1.04px;"/><path d="M4775.56,3524.59c8.913,-8.358 13.371,-19.183 13.371,-32.483c0,-14.629 -4.646,-25.979 -13.941,-34.054c-9.296,-8.071 -22.334,-12.113 -39.121,-12.113l-49.367,0l0,91.192l53.633,-0c14.7,-0 26.505,-4.179 35.425,-12.542" style="fill:#fefcf7;fill-rule:nonzero;stroke:#000;stroke-width:1.04px;"/><path d="M2954.1,3057.15l-41.538,112.812l83.084,0l-41.546,-112.812Z" style="fill:#fefcf7;fill-rule:nonzero;stroke:#000;stroke-width:1.04px;"/><path d="M2196.03,4329.52l0,84.641l52.496,0c14.983,0 26.858,-3.808 35.633,-11.433c8.771,-7.621 13.163,-18.2 13.163,-31.737c-0,-12.784 -4.2,-22.892 -12.592,-30.321c-8.396,-7.434 -19.987,-11.15 -34.783,-11.15l-53.917,-0Z" style="fill:#fefcf7;fill-rule:nonzero;stroke:#000;stroke-width:1.04px;"/><path d="M1529.2,2439.89c19.821,-0 35.279,-7.092 46.375,-21.267c11.096,-14.179 16.646,-33.933 16.646,-59.254l-0,-21.908c-0,-24.942 -5.642,-44.48 -16.925,-58.609c-11.288,-14.133 -26.746,-21.2 -46.379,-21.2c-19.254,0 -34.596,7.092 -46.021,21.267c-11.429,14.183 -17.146,33.979 -17.146,59.396l0,21.625c0,24.562 5.692,44.029 17.075,58.396c11.379,14.366 26.838,21.554 46.375,21.554" style="fill:#fefcf7;fill-rule:nonzero;stroke:#000;stroke-width:1.04px;"/><path d="M2277.33,4246.1c-8.3,-6.321 -20.841,-9.479 -37.629,-9.479l-43.671,-0l0,78.104l47.796,0c14.604,-0.287 25.917,-3.733 33.933,-10.337c8.013,-6.605 12.021,-16.221 12.021,-28.859c0,-13.3 -4.15,-23.108 -12.45,-29.429" style="fill:#fefcf7;fill-rule:nonzero;stroke:#000;stroke-width:1.04px;"/></g></svg>